<!DOCTYPE svg PUBLIC "-//W3C//DTD SVG 1.1//EN" "http://www.w3.org/Graphics/SVG/1.1/DTD/svg11.dtd">
<svg version="1.1" xmlns="http://www.w3.org/2000/svg" xmlns:xlink="http://www.w3.org/1999/xlink" viewBox="394.345 961.492 48 53.482"
	 xml:space="preserve">
<g transform="translate(-25, -23)">
	<g transform="translate(25, 23)">
		<path fill="#430098" d="M437.532,961.492h-38.373c-2.674,0-4.813,2.139-4.813,4.813v43.855c0,2.674,2.139,4.813,4.813,4.813
			h38.373c2.674,0,4.813-2.139,4.813-4.813v-43.855C442.345,963.631,440.206,961.492,437.532,961.492z M439.671,1010.161
			c0,1.203-0.936,2.139-2.139,2.139h-38.373c-1.203,0-2.139-0.936-2.139-2.139v-43.855c0-1.203,0.936-2.139,2.139-2.139h38.373
			c1.203,0,2.139,0.936,2.139,2.139V1010.161z M406.378,1006.952l6.017-5.348l-6.017-5.348V1006.952z M428.039,985.291
			c-1.07-1.07-3.075-2.407-6.418-2.407c-3.61,0-7.354,0.936-10.028,1.872v-15.242h-5.348v23.131l3.744-1.738
			c0,0,6.15-2.808,11.499-2.808c2.674,0,3.343,1.471,3.343,2.808v16.045h5.348v-16.045
			C430.312,990.506,430.312,987.564,428.039,985.291z M420.952,978.205h5.348c2.407-2.808,3.61-5.616,4.011-8.691h-5.348
			C424.429,972.589,423.092,975.397,420.952,978.205z"/>
	</g>
</g>
</svg>
