<?xml version="1.0" encoding="UTF-8"?>
<!-- Generator: Adobe Illustrator 17.0.0, SVG Export Plug-In . SVG Version: 6.00 Build 0)  -->
<!DOCTYPE svg PUBLIC "-//W3C//DTD SVG 1.1//EN" "http://www.w3.org/Graphics/SVG/1.1/DTD/svg11.dtd">
<svg version="1.1" id="Layer_1" xmlns="http://www.w3.org/2000/svg" xmlns:xlink="http://www.w3.org/1999/xlink" x="0px" y="0px" width="960px" height="560px" viewBox="0 0 960 560" enable-background="new 0 0 960 560" xml:space="preserve">
<path fill="#333333" d="M901.214,248.684L684.456,119.915l0,0l-42.534-25.268c-25.764-15.305-69.651-27.094-99.91-26.758  l-70.271,0.697c-0.004,0-0.008,0.001-0.013,0.001L80.075,72.472c-20.412,0.202-37.837,14.934-41.435,35.032  c-3.594,20.092,7.643,39.952,26.719,47.221l117.12,44.617l6.915,178.236c0.645,16.625,7.611,33.036,19.615,46.211  s27.698,21.635,44.191,23.82l300.867,39.864c2.833,0.375,5.643,0.561,8.416,0.561c8.868,0,17.362-1.901,25.048-5.572l193.829-77.71  c31.014-12.434,55.308-45.932,55.308-76.261v-1.874l41.561,1.124c0.426,0.014,0.848,0.019,1.271,0.019  c18.817,0,35.612-12.626,40.842-30.705C925.719,278.46,917.854,258.57,901.214,248.684z M210.598,192.902  c-0.316-8.135,1.866-14.424,5.987-17.254c1.92-1.318,4.389-1.975,7.236-1.975c3.263,0,7.023,0.863,11.018,2.58l214.125,92.018  c10.334,4.441,23.465,8.654,37.361,12.2v74.866c-13.492,1.224-26.315,2.99-36.682,5.195l-217.62,46.302  c-8.294-8.098-13.864-19.087-14.301-30.355L210.598,192.902z M591.709,357.909l-39.141-3.537  c-10.78-0.973-24.046-1.188-37.899-0.759V286.56c12.817,2.239,25.144,3.672,35.427,3.95l41.823,1.131L591.709,357.909z   M557.791,459.371l-268.979-35.639l166.728-35.474c25.373-5.398,68.637-7.986,94.479-5.654l41.601,3.76l-0.138,43.582  c-0.029,9.165-3.518,17.246-9.822,22.753c-1.833,1.602-3.855,2.929-6.017,3.99l-3.902,1.565  C567.433,459.62,562.705,460.022,557.791,459.371z M893.111,289.178c-1.743,6.026-7.34,10.235-13.611,10.235  c-0.118,0-0.237-0.001-0.431-0.007l-42.4-1.147V283.99c0-7.828-6.345-14.173-14.173-14.173s-14.173,6.346-14.173,14.173v44.5  c0,18.598-17.528,41.939-37.511,49.95l-151.684,60.813c0.448-3.004,0.689-6.081,0.699-9.218l0.842-266  c0.025-7.828-6.301-14.193-14.128-14.218c-0.016,0-0.03,0-0.046,0c-7.807,0-14.147,6.316-14.172,14.128l-0.314,99.341l-41.147-1.113  c-25.621-0.693-67.159-9.827-90.707-19.947L246.03,150.209c-16.606-7.136-33.188-6.38-45.495,2.074  c-6.401,4.396-11.257,10.632-14.36,18.133l-110.723-42.18c-6.359-2.423-10.106-9.044-8.908-15.74  c1.199-6.7,7.008-11.612,13.812-11.68l404.332-4.011c0.005,0,0.009-0.001,0.013-0.001l57.592-0.571  c24.935-0.277,63.944,10.187,85.152,22.785l31.47,18.696c0.001,0.001,0.002,0.002,0.003,0.002l227.816,135.337  C892.282,276.349,894.903,282.98,893.111,289.178z"/>
</svg>