<svg xmlns="http://www.w3.org/2000/svg" width="147.383" height="222.577" viewBox="0 0 147.383 222.577">
  <g id="Group_3" data-name="Group 3" transform="translate(-737.617 -980.843)">
    <path id="Path_28" data-name="Path 28" d="M102.207,335.566v65.645a3.273,3.273,0,0,0,3.272,3.272h19.6a3.273,3.273,0,0,0,3.272-3.272V335.566a3.273,3.273,0,0,0-3.272-3.272h-19.6a3.273,3.273,0,0,0-3.272,3.272" transform="translate(635.41 723.743)" fill="#eb1900"/>
    <path id="Path_29" data-name="Path 29" d="M214.833,241.342a3.274,3.274,0,0,0-2.314-.959H139.277a3.274,3.274,0,0,0-2.314.959l-33.8,33.8a3.272,3.272,0,0,0-.959,2.314V309.3a3.273,3.273,0,0,0,3.272,3.272h19.6a3.273,3.273,0,0,0,3.272-3.272V269.8a3.273,3.273,0,0,1,3.272-3.272H220.17a3.273,3.273,0,0,1,3.272,3.272v39.5a3.273,3.273,0,0,0,3.272,3.272h19.6a3.273,3.273,0,0,0,3.272-3.272V277.453a3.272,3.272,0,0,0-.959-2.314Z" transform="translate(635.41 740.46)" fill="#eb1900"/>
    <path id="Path_30" data-name="Path 30" d="M223.442,427.476v39.5a3.273,3.273,0,0,1-3.272,3.272H131.627a3.273,3.273,0,0,1-3.272-3.272v-39.5a3.273,3.273,0,0,0-3.272-3.272h-19.6a3.273,3.273,0,0,0-3.272,3.272v31.847a3.272,3.272,0,0,0,.959,2.314l33.8,33.8a3.273,3.273,0,0,0,2.314.959H212.52a3.273,3.273,0,0,0,2.314-.959l33.8-33.8a3.272,3.272,0,0,0,.959-2.314V427.476a3.273,3.273,0,0,0-3.272-3.272h-19.6a3.273,3.273,0,0,0-3.272,3.272" transform="translate(635.41 707.026)" fill="#eb1900"/>
    <path id="Path_31" data-name="Path 31" d="M250.4,335.566v65.645a3.273,3.273,0,0,0,3.272,3.272h19.6a3.273,3.273,0,0,0,3.272-3.272V335.566a3.273,3.273,0,0,0-3.272-3.272h-19.6a3.273,3.273,0,0,0-3.272,3.272" transform="translate(608.458 723.743)" fill="#eb1900"/>
  </g>
</svg>
