<svg xmlns="http://www.w3.org/2000/svg" width="231.003" height="575.642" viewBox="0 0 231.003 575.642">
  <g id="Group_7" data-name="Group 7" transform="translate(-2286 1052.18)">
    <path id="Path_23" data-name="Path 23" d="M91.008.958l-33.8,33.8a3.272,3.272,0,0,0-.959,2.314V68.917a3.273,3.273,0,0,0,3.272,3.272h19.6A3.273,3.273,0,0,0,82.4,68.917v-39.5a3.273,3.273,0,0,1,3.272-3.272h39.5a3.273,3.273,0,0,0,3.272-3.272V3.271A3.273,3.273,0,0,0,125.169,0H93.322a3.274,3.274,0,0,0-2.314.959" transform="translate(2275.769 -1052.18)" fill="#eb1900"/>
    <path id="Path_24" data-name="Path 24" d="M34.756,432.514l-33.8,33.8A3.272,3.272,0,0,0,0,468.625v31.848a3.273,3.273,0,0,0,3.272,3.272h19.6a3.273,3.273,0,0,0,3.272-3.272v-39.5A3.273,3.273,0,0,1,29.42,457.7h39.5a3.272,3.272,0,0,0,3.272-3.272v-19.6a3.272,3.272,0,0,0-3.272-3.272H37.07a3.274,3.274,0,0,0-2.314.959" transform="translate(2286 -1130.672)" fill="#eb1900"/>
    <path id="Path_25" data-name="Path 25" d="M91.008,184.778l-33.8,33.8a3.272,3.272,0,0,0-.959,2.314v31.847a3.273,3.273,0,0,0,3.272,3.272h19.6a3.273,3.273,0,0,0,3.272-3.272v-39.5a3.273,3.273,0,0,1,3.272-3.272h39.5a3.273,3.273,0,0,0,3.272-3.272v-19.6a3.273,3.273,0,0,0-3.272-3.272H93.322a3.274,3.274,0,0,0-2.314.959" transform="translate(2275.769 -1085.614)" fill="#eb1900"/>
    <path id="Path_26" data-name="Path 26" d="M183.281,0H151.434a3.273,3.273,0,0,0-3.272,3.272v19.6a3.273,3.273,0,0,0,3.272,3.272h39.5a3.272,3.272,0,0,1,3.272,3.272v39.5a3.273,3.273,0,0,0,3.272,3.272h19.6a3.273,3.273,0,0,0,3.272-3.272V37.069a3.271,3.271,0,0,0-.958-2.314L185.6.959A3.266,3.266,0,0,0,183.281,0" transform="translate(2259.052 -1052.18)" fill="#eb1900"/>
    <path id="Path_27" data-name="Path 27" d="M194.205,95.181v39.5a3.273,3.273,0,0,1-3.272,3.272h-39.5a3.272,3.272,0,0,0-3.272,3.272v19.6a3.272,3.272,0,0,0,3.272,3.272h31.846a3.272,3.272,0,0,0,2.314-.959l33.8-33.8a3.271,3.271,0,0,0,.958-2.314V95.181a3.273,3.273,0,0,0-3.272-3.272h-19.6a3.272,3.272,0,0,0-3.272,3.272" transform="translate(2259.052 -1068.897)" fill="#eb1900"/>
    <path id="Path_28" data-name="Path 28" d="M102.207,335.566v65.645a3.273,3.273,0,0,0,3.272,3.272h19.6a3.273,3.273,0,0,0,3.272-3.272V335.566a3.273,3.273,0,0,0-3.272-3.272h-19.6a3.273,3.273,0,0,0-3.272,3.272" transform="translate(2267.41 -1112.619)" fill="#eb1900"/>
    <path id="Path_29" data-name="Path 29" d="M214.833,241.342a3.274,3.274,0,0,0-2.314-.959H139.277a3.274,3.274,0,0,0-2.314.959l-33.8,33.8a3.272,3.272,0,0,0-.959,2.314V309.3a3.273,3.273,0,0,0,3.272,3.272h19.6a3.273,3.273,0,0,0,3.272-3.272V269.8a3.273,3.273,0,0,1,3.272-3.272h88.55a3.273,3.273,0,0,1,3.272,3.272v39.5a3.273,3.273,0,0,0,3.272,3.272h19.6a3.273,3.273,0,0,0,3.272-3.272V277.453a3.272,3.272,0,0,0-.959-2.314Z" transform="translate(2267.41 -1095.902)" fill="#eb1900"/>
    <path id="Path_30" data-name="Path 30" d="M223.442,427.476v39.5a3.273,3.273,0,0,1-3.272,3.272H131.627a3.273,3.273,0,0,1-3.272-3.272v-39.5a3.273,3.273,0,0,0-3.272-3.272h-19.6a3.273,3.273,0,0,0-3.272,3.272v31.847a3.272,3.272,0,0,0,.959,2.314l33.8,33.8a3.273,3.273,0,0,0,2.314.959H212.52a3.272,3.272,0,0,0,2.313-.958l33.8-33.8a3.272,3.272,0,0,0,.959-2.314V427.476a3.273,3.273,0,0,0-3.272-3.272h-19.6a3.273,3.273,0,0,0-3.272,3.272" transform="translate(2267.41 -1129.335)" fill="#eb1900"/>
    <path id="Path_31" data-name="Path 31" d="M250.4,335.566v65.645a3.273,3.273,0,0,0,3.272,3.272h19.6a3.273,3.273,0,0,0,3.272-3.272V335.566a3.273,3.273,0,0,0-3.272-3.272h-19.6a3.273,3.273,0,0,0-3.272,3.272" transform="translate(2240.458 -1112.619)" fill="#eb1900"/>
    <path id="Path_32" data-name="Path 32" d="M121.235,618.648v39.5a3.273,3.273,0,0,1-3.272,3.273H29.42a3.273,3.273,0,0,1-3.272-3.273v-39.5a3.273,3.273,0,0,0-3.272-3.273H3.272A3.273,3.273,0,0,0,0,618.648v31.847a3.272,3.272,0,0,0,.959,2.314l33.8,33.8a3.272,3.272,0,0,0,2.314.959h73.243a3.274,3.274,0,0,0,2.314-.959l33.8-33.8a3.272,3.272,0,0,0,.959-2.314V618.648a3.273,3.273,0,0,0-3.272-3.273h-19.6a3.273,3.273,0,0,0-3.272,3.273" transform="translate(2286 -1164.106)" fill="#eb1900"/>
    <path id="Path_33" data-name="Path 33" d="M148.188,526.738v65.645a3.273,3.273,0,0,0,3.272,3.273h19.6a3.273,3.273,0,0,0,3.272-3.273V526.738a3.273,3.273,0,0,0-3.272-3.273h-19.6a3.273,3.273,0,0,0-3.272,3.273" transform="translate(2259.047 -1147.389)" fill="#eb1900"/>
    <path id="Path_31-2" data-name="Path 31" d="M250.4,335.566v65.645a3.273,3.273,0,0,0,3.272,3.272h19.6a3.273,3.273,0,0,0,3.272-3.272V335.566a3.273,3.273,0,0,0-3.272-3.272h-19.6a3.273,3.273,0,0,0-3.272,3.272" transform="translate(2035.6 -956.218)" fill="#eb1900"/>
  </g>
</svg>
