<svg xmlns="http://www.w3.org/2000/svg" width="147.389" height="222.578" viewBox="0 0 147.389 222.578">
  <g id="Group_8" data-name="Group 8" transform="translate(-2633 699.116)">
    <path id="Path_24" data-name="Path 24" d="M34.756,432.514l-33.8,33.8A3.272,3.272,0,0,0,0,468.625v31.848a3.273,3.273,0,0,0,3.272,3.272h19.6a3.273,3.273,0,0,0,3.272-3.272v-39.5A3.273,3.273,0,0,1,29.42,457.7h39.5a3.272,3.272,0,0,0,3.272-3.272v-19.6a3.272,3.272,0,0,0-3.272-3.272H37.07a3.274,3.274,0,0,0-2.314.959" transform="translate(2633 -1130.672)" fill="#eb1900"/>
    <path id="Path_32" data-name="Path 32" d="M121.235,618.648v39.5a3.273,3.273,0,0,1-3.272,3.273H29.42a3.273,3.273,0,0,1-3.272-3.273v-39.5a3.273,3.273,0,0,0-3.272-3.273H3.272A3.273,3.273,0,0,0,0,618.648v31.847a3.272,3.272,0,0,0,.959,2.314l33.8,33.8a3.272,3.272,0,0,0,2.314.959h73.243a3.274,3.274,0,0,0,2.314-.959l33.8-33.8a3.272,3.272,0,0,0,.959-2.314V618.648a3.273,3.273,0,0,0-3.272-3.273h-19.6a3.273,3.273,0,0,0-3.272,3.273" transform="translate(2633 -1164.106)" fill="#eb1900"/>
    <path id="Path_33" data-name="Path 33" d="M148.188,526.738v65.645a3.273,3.273,0,0,0,3.272,3.273h19.6a3.273,3.273,0,0,0,3.272-3.273V526.738a3.273,3.273,0,0,0-3.272-3.273h-19.6a3.273,3.273,0,0,0-3.272,3.273" transform="translate(2606.047 -1147.389)" fill="#eb1900"/>
    <path id="Path_31" data-name="Path 31" d="M250.4,335.566v65.645a3.273,3.273,0,0,0,3.272,3.272h19.6a3.273,3.273,0,0,0,3.272-3.272V335.566a3.273,3.273,0,0,0-3.272-3.272h-19.6a3.273,3.273,0,0,0-3.272,3.272" transform="translate(2382.6 -956.218)" fill="#eb1900"/>
  </g>
</svg>
