<svg xmlns="http://www.w3.org/2000/svg" width="231.003" height="575.642"><g fill="#eb1900"><path data-name="Path 23" d="M80.777.958l-33.8 33.8a3.272 3.272 0 00-.959 2.314v31.845a3.273 3.273 0 003.272 3.272h19.6a3.273 3.273 0 003.279-3.272v-39.5a3.273 3.273 0 013.272-3.272h39.5a3.273 3.273 0 003.272-3.272V3.271A3.273 3.273 0 00114.938 0H83.091a3.274 3.274 0 00-2.314.959"/><path data-name="Path 24" d="M34.756 354.022l-33.8 33.8A3.272 3.272 0 000 390.133v31.848a3.273 3.273 0 003.272 3.272h19.6a3.273 3.273 0 003.272-3.272v-39.5a3.273 3.273 0 013.276-3.273h39.5a3.272 3.272 0 003.272-3.272v-19.6a3.272 3.272 0 00-3.272-3.272H37.07a3.274 3.274 0 00-2.314.959"/><path data-name="Path 25" d="M80.777 151.344l-33.8 33.8a3.272 3.272 0 00-.959 2.314v31.847a3.273 3.273 0 003.272 3.272h19.6a3.273 3.273 0 003.272-3.272v-39.5a3.273 3.273 0 013.272-3.272h39.5a3.273 3.273 0 003.272-3.272v-19.6a3.273 3.273 0 00-3.272-3.272H83.091a3.274 3.274 0 00-2.314.959"/><path data-name="Path 26" d="M156.333 0h-31.847a3.273 3.273 0 00-3.272 3.272v19.6a3.273 3.273 0 003.272 3.272h39.5a3.272 3.272 0 013.272 3.272v39.5a3.273 3.273 0 003.272 3.272h19.6a3.273 3.273 0 003.272-3.272V37.069a3.271 3.271 0 00-.958-2.314L158.652.959A3.266 3.266 0 00156.333 0"/><path data-name="Path 27" d="M167.257 78.464v39.5a3.273 3.273 0 01-3.272 3.272h-39.5a3.272 3.272 0 00-3.272 3.272v19.6a3.272 3.272 0 003.272 3.272h31.846a3.272 3.272 0 002.314-.959l33.8-33.8a3.271 3.271 0 00.958-2.314V78.464a3.273 3.273 0 00-3.272-3.272h-19.6a3.272 3.272 0 00-3.272 3.272"/><path data-name="Path 28" d="M83.617 275.127v65.645a3.273 3.273 0 003.272 3.272h19.6a3.273 3.273 0 003.272-3.272v-65.645a3.273 3.273 0 00-3.272-3.272h-19.6a3.273 3.273 0 00-3.272 3.272"/><path data-name="Path 29" d="M196.243 197.62a3.274 3.274 0 00-2.314-.959h-73.242a3.274 3.274 0 00-2.314.959l-33.8 33.8a3.272 3.272 0 00-.959 2.314v31.844a3.273 3.273 0 003.272 3.272h19.6a3.273 3.273 0 003.272-3.272v-39.5a3.273 3.273 0 013.272-3.272h88.55a3.273 3.273 0 013.272 3.272v39.5a3.273 3.273 0 003.272 3.272h19.6a3.273 3.273 0 003.272-3.272v-31.847a3.272 3.272 0 00-.959-2.314z"/><path data-name="Path 30" d="M204.852 350.321v39.5a3.273 3.273 0 01-3.272 3.272h-88.543a3.273 3.273 0 01-3.272-3.272v-39.5a3.273 3.273 0 00-3.272-3.272h-19.6a3.273 3.273 0 00-3.272 3.272v31.847a3.272 3.272 0 00.959 2.314l33.8 33.8a3.273 3.273 0 002.314.959h73.236a3.272 3.272 0 002.313-.958l33.8-33.8a3.272 3.272 0 00.959-2.314v-31.848a3.273 3.273 0 00-3.272-3.272h-19.6a3.273 3.273 0 00-3.272 3.272"/><path data-name="Path 31" d="M204.858 275.127v65.645a3.273 3.273 0 003.272 3.272h19.6a3.273 3.273 0 003.272-3.272v-65.645a3.273 3.273 0 00-3.272-3.272h-19.6a3.273 3.273 0 00-3.272 3.272"/><path data-name="Path 32" d="M121.235 506.722v39.5a3.273 3.273 0 01-3.272 3.273H29.42a3.273 3.273 0 01-3.272-3.273v-39.5a3.273 3.273 0 00-3.272-3.273H3.272A3.273 3.273 0 000 506.722v31.847a3.272 3.272 0 00.959 2.314l33.8 33.8a3.272 3.272 0 002.314.959h73.243a3.274 3.274 0 002.314-.959l33.8-33.8a3.272 3.272 0 00.959-2.314v-31.847a3.273 3.273 0 00-3.272-3.273h-19.6a3.273 3.273 0 00-3.272 3.273"/><path data-name="Path 33" d="M121.235 431.529v65.645a3.273 3.273 0 003.272 3.273h19.6a3.273 3.273 0 003.272-3.273v-65.645a3.273 3.273 0 00-3.272-3.273h-19.6a3.273 3.273 0 00-3.272 3.273"/><path data-name="Path 31" d="M0 431.528v65.645a3.273 3.273 0 003.272 3.272h19.6a3.273 3.273 0 003.272-3.272v-65.645a3.273 3.273 0 00-3.272-3.272h-19.6A3.273 3.273 0 000 431.528"/></g></svg>