<svg xmlns="http://www.w3.org/2000/svg" width="310.39" height="308.717" viewBox="0 0 310.39 308.717">
  <path id="Path_34" data-name="Path 34" d="M171.384,0,155.2,58.822,139.005,0,135.3,60.891,107.232,6.726l9.108,60.32-38.775-47.1,21.491,57.1L51.343,39.03,84.19,90.438,29.646,63.113,72.425,106.6,13.4,91.208l50.91,33.611L3.36,122.114l56.816,22.22L0,154.359l60.176,10.024L3.36,186.6,64.3,183.9l-50.91,33.611,59.031-15.4L29.645,245.6l54.544-27.324L51.341,269.685l47.715-38.014-21.492,57.1,38.776-47.1-9.109,60.32L135.3,247.826l3.71,60.891L155.2,249.895l16.19,58.822,3.71-60.891,28.063,54.166-9.108-60.321,38.774,47.1-21.491-57.1,47.714,38.015L226.2,218.279,280.744,245.6l-42.78-43.492,59.03,15.4L246.086,183.9l60.943,2.705-56.815-22.22,60.176-10.024-60.176-10.025,56.815-22.221-60.943,2.707L297,91.209l-59.03,15.4,42.78-43.491L226.2,90.44l32.849-51.408L211.334,77.046l21.491-57.1-38.775,47.1,9.109-60.32L175.094,60.891Z" transform="translate(0 0)" fill="#fff"/>
</svg>
